Coordinates
version=1
nRows=11
nColumns=63
inDegrees=yes

Units are S.I. units (second, meters, Newtons, ...)
If the header above contains a line with 'inDegrees', this indicates whether rotational values are in degrees (yes) or radians (no).

endheader
time	pelvis_tilt	pelvis_list	pelvis_rotation	pelvis_tx	pelvis_ty	pelvis_tz	hip_flexion_r	hip_adduction_r	hip_rotation_r	knee_angle_r	knee_angle_r_beta	ankle_angle_r	subtalar_angle_r	mtp_angle_r	hip_flexion_l	hip_adduction_l	hip_rotation_l	knee_angle_l	knee_angle_l_beta	ankle_angle_l	subtalar_angle_l	mtp_angle_l	L5_S1_Flex_Ext	L5_S1_Lat_Bending	L5_S1_axial_rotation	L4_L5_Flex_Ext	L4_L5_Lat_Bending	L4_L5_axial_rotation	L3_L4_Flex_Ext	L3_L4_Lat_Bending	L3_L4_axial_rotation	L2_L3_Flex_Ext	L2_L3_Lat_Bending	L2_L3_axial_rotation	L1_L2_Flex_Ext	L1_L2_Lat_Bending	L1_L2_axial_rotation	L1_T12_Flex_Ext	L1_T12_Lat_Bending	L1_T12_axial_rotation	Abs_r3	Abs_r2	Abs_r1	Abs_t1	Abs_t2	neck_flexion	neck_bending	neck_rotation	arm_flex_r	arm_add_r	arm_rot_r	elbow_flex_r	pro_sup_r	wrist_flex_r	wrist_dev_r	arm_flex_l	arm_add_l	arm_rot_l	elbow_flex_l	pro_sup_l	wrist_flex_l	wrist_dev_l
      0.00000000	     -2.34192241	     -2.75452467	     87.63071486	      0.20721964	      0.89915742	      0.49025116	      2.64562585	     -3.76931924	    -15.27901989	     14.72629686	      0.25702237	     46.00434137	     17.33007819	      0.00000000	      2.41114282	      2.86805847	     20.79672389	      4.38153547	      0.07647222	     38.71337575	    -16.70988689	      0.00000000	     -0.09818041	     -0.09209911	     -0.19521210	     -0.18233084	     -0.12249181	     -0.20741285	     -0.16130060	     -0.22392976	     -0.20741285	     -0.11221039	     -0.22392976	     -0.17081059	     -0.09117033	     -0.18780850	     -0.15860983	     -0.05610029	     -0.14266151	     -0.14640907	     -0.70129285	     -1.04184350	     -1.08571113	      0.00000000	      0.00000000	      8.07258460	      1.57947335	      9.16124745	    -22.31421928	    -78.44964008	     -2.44261044	      6.10466951	     18.33455835	    -12.47673178	      5.33633587	     68.24135422	    -97.35387078	    128.59541169	      1.51148095	      8.16078770	    -13.81986583	      2.58965840
      0.01724138	     -2.97236801	     -2.35972917	     86.93512621	      0.20928390	      0.89981547	      0.48830398	      1.51378364	     -4.27106786	    -14.78760922	     14.00154729	      0.24437310	     44.86484286	     16.49075291	      0.00000000	      1.58097540	      3.47288558	     20.43019888	      4.27497533	      0.07461239	     37.55227632	    -16.87444429	      0.00000000	     -0.11047398	     -0.15009515	     -0.16169006	     -0.20516122	     -0.19962655	     -0.17179569	     -0.18149769	     -0.36494135	     -0.17179569	     -0.12626071	     -0.36494135	     -0.14147880	     -0.10258613	     -0.30607403	     -0.13137317	     -0.06312483	     -0.23249739	     -0.12126755	     -0.78910456	     -1.69790637	     -0.89927161	      0.00000000	      0.00000000	      7.82192036	      1.13566439	     10.78533707	    -22.76706422	    -77.10641258	    -29.34925331	      6.71658037	     15.04413917	    -12.18116891	      7.19015503	     64.01869229	    -98.31032290	    123.31157004	      1.47483638	      7.29126945	    -15.04968228	      1.90568428
      0.03448276	     -3.35816553	     -1.95597690	     86.27329874	      0.21072534	      0.90071391	      0.48706199	      0.57609488	     -4.54267206	    -13.97016643	     13.35023461	      0.23300555	     43.79492211	     15.59472716	      0.00000000	      0.82690119	      3.84084320	     19.76287498	      4.01460277	      0.07006804	     36.74675271	    -16.87461669	      0.00000000	     -0.12819548	     -0.18095700	     -0.09391747	     -0.23807182	     -0.24067281	     -0.09978731	     -0.21061235	     -0.43997884	     -0.09978731	     -0.14651461	     -0.43997884	     -0.08217779	     -0.11904232	     -0.36900751	     -0.07630795	     -0.07325090	     -0.28030239	     -0.07043810	     -0.91568748	     -2.04702175	     -0.52234081	      0.00000000	      0.00000000	      7.59397676	      0.35296202	     11.77157673	    -21.17992326	    -76.80360442	    -51.20074380	      7.29005823	      7.95649434	    -13.75506905	      6.64059181	     62.52683668	    -98.85352896	    121.58724010	      1.54414280	      7.17006921	    -15.47067090	      1.85388199
      0.05172414	     -3.76557612	     -1.55728945	     85.67397733	      0.21233317	      0.90170773	      0.48640768	     -0.17288684	     -4.83346221	    -12.96561563	     12.79826117	      0.22337180	     42.97131088	     14.76709069	      0.00000000	      0.15709327	      4.20754232	     18.89898777	      3.63707504	      0.06347893	     36.17044087	    -16.76305766	      0.00000000	     -0.14749820	     -0.23376435	      0.00426463	     -0.27391891	     -0.31090659	      0.00453117	     -0.24232479	     -0.56837465	      0.00453117	     -0.16857569	     -0.56837465	      0.00373155	     -0.13696683	     -0.47669227	      0.00346501	     -0.08428047	     -0.36210098	      0.00319847	     -1.05356489	     -2.64438910	      0.02371860	      0.00000000	      0.00000000	      7.41705609	     -0.27630625	     11.90853666	    -20.51903411	    -77.08289137	    -66.97936082	      7.57963003	      8.12617714	    -15.37754951	      5.09466958	     60.19548458	    -99.20135023	    118.97963329	      1.90780075	      8.10443790	    -15.10833616	      2.44276849
      0.06896552	     -4.02154716	     -1.21790167	     85.16534752	      0.21352541	      0.90279695	      0.48613147	     -0.76512466	     -4.97518677	    -11.82738517	     12.27019755	      0.21415535	     42.26252389	     13.96870126	      0.00000000	     -0.35193992	      4.43453255	     17.94452656	      3.29083461	      0.05743590	     35.89984783	    -16.58256383	      0.00000000	     -0.16462448	     -0.27014616	      0.11513416	     -0.30572412	     -0.35929440	      0.12233004	     -0.27046155	     -0.65683338	      0.12233004	     -0.18814932	     -0.65683338	      0.10074239	     -0.15287029	     -0.55088206	      0.09354650	     -0.09406643	     -0.41845641	      0.08635062	     -1.17589618	     -3.05594743	      0.64034165	      0.00000000	      0.00000000	      7.24970477	     -1.04825190	     11.69443655	    -23.16289234	    -77.69705586	    -74.24546562	      7.79507364	      6.43133570	    -16.54898407	      3.62785781	     59.42539879	    -99.28651963	    118.43219233	      2.41101558	      9.22704776	    -14.36639254	      3.27103581
      0.08620690	     -4.25491902	     -0.92084369	     84.71369183	      0.21463279	      0.90384977	      0.48620516	     -1.21785401	     -5.11783510	    -10.77212214	     11.79753649	      0.20590586	     41.74725344	     13.43008481	      0.00000000	     -0.76278602	      4.63453805	     16.99760376	      2.91995249	      0.05096278	     35.77795520	    -16.40527036	      0.00000000	     -0.18113019	     -0.31184374	      0.23233879	     -0.33637688	     -0.41475218	      0.24685997	     -0.29757880	     -0.75821688	      0.24685997	     -0.20701370	     -0.75821688	      0.20329644	     -0.16819750	     -0.63591176	      0.18877527	     -0.10349779	     -0.48304596	      0.17425409	     -1.29379486	     -3.52763881	      1.29219866	      0.00000000	      0.00000000	      7.10620919	     -1.65335987	     11.11985630	    -26.57791954	    -78.21431127	    -78.79781998	      8.00884286	      5.76706422	    -17.52997244	      2.29371095	     58.74768802	    -99.30444617	    118.20366380	      3.16233372	     10.73380844	    -13.24031549	      4.40056075
      0.10344828	     -4.58809197	     -0.73861504	     84.71320720	      0.21537647	      0.90462128	      0.48692180	     -1.42252857	     -5.39788353	    -10.56516747	     11.62050591	      0.20281609	     41.60160974	     13.38162668	      0.00000000	     -0.77748383	      4.94735388	     16.63437080	      2.94276010	      0.05136085	     35.87220178	    -16.37818218	      0.00000000	     -0.19434940	     -0.38009731	      0.21019712	     -0.36092626	     -0.50552942	      0.22333444	     -0.31929662	     -0.92416859	      0.22333444	     -0.22212192	     -0.92416859	      0.18392248	     -0.18047285	     -0.77509443	      0.17078516	     -0.11105124	     -0.58877073	      0.15764784	     -1.38821830	     -4.29973674	      1.16905331	      0.00000000	      0.00000000	      6.99828122	     -1.43206119	     10.60184167	    -27.19009548	    -78.67564207	    -78.90735938	      7.74806656	      5.99295207	    -17.76600521	      1.57910059	     58.95190724	    -99.93074767	    118.46932945	      4.62298106	     11.07136997	    -12.62236094	      4.90592989
      0.12068966	     -4.55324647	     -0.61110537	     84.03833835	      0.21629242	      0.90528778	      0.48706093	     -1.65683940	     -5.27075998	     -9.12915714	     11.07002832	      0.19320844	     41.17488992	     12.76918792	      0.00000000	     -1.09189825	      4.87380991	     15.66890824	      2.45134831	      0.04278410	     35.94943150	    -16.24266139	      0.00000000	     -0.20858922	     -0.38195029	      0.41666374	     -0.38737103	     -0.50799389	      0.44270523	     -0.34269122	     -0.92867393	      0.44270523	     -0.23839661	     -0.92867393	      0.36458078	     -0.19369595	     -0.77887303	      0.33853929	     -0.11918788	     -0.59164100	      0.31249781	     -1.48993191	     -4.32069807	      2.31735874	      0.00000000	      0.00000000	      7.08826354	     -2.02339278	      9.86256329	    -33.27041508	    -78.74093646	    -80.77215330	      8.02309104	      5.22726829	    -18.61685104	      0.96601662	     60.68554298	    -99.41335953	    122.27629057	      4.99346413	     13.90536122	    -10.28450662	      6.45402191
      0.13793103	     -4.77345798	     -0.57188055	     84.07867025	      0.21671343	      0.90560165	      0.48791047	     -1.66263106	     -5.45569891	     -9.09749515	     10.97430601	      0.19153777	     41.06789581	     12.63270885	      0.00000000	     -0.95173233	      5.06850542	     15.46258081	      2.56309519	      0.04473445	     36.05754989	    -16.15531750	      0.00000000	     -0.22903777	     -0.43706690	      0.42815846	     -0.42534604	     -0.58129898	      0.45491836	     -0.37628615	     -1.06268447	      0.45491836	     -0.26176727	     -1.06268447	      0.37463865	     -0.21268447	     -0.89126683	      0.34787874	     -0.13087218	     -0.67701663	      0.32111884	     -1.63599388	     -4.94418823	      2.38128888	      0.00000000	      0.00000000	      7.14518387	     -1.46863203	      9.20865385	    -33.77918202	    -78.66620570	    -80.60168524	      7.99094268	      5.68393681	    -18.60129584	      0.54390833	     61.03201523	    -99.86842542	    122.58562335	      6.55402300	     14.13852781	     -9.73360213	      6.86426008
      0.15517241	     -4.58131658	     -0.70391089	     83.58490747	      0.21688919	      0.90572956	      0.48854254	     -1.54395092	     -5.23226225	     -8.39506947	     10.66521430	      0.18614310	     40.73424401	     12.44191150	      0.00000000	     -0.83157726	      4.87636272	     15.26559986	      2.46609181	      0.04304142	     35.93655610	    -16.60675617	      0.00000000	     -0.23496490	     -0.41336661	      0.52074710	     -0.43635331	     -0.54977759	      0.55329379	     -0.38602383	     -1.00505958	      0.55329379	     -0.26854138	     -1.00505958	      0.45565371	     -0.21818840	     -0.84293719	      0.42310702	     -0.13425894	     -0.64030488	      0.39056033	     -1.67833077	     -4.67608578	      2.89623915	      0.00000000	      0.00000000	      7.49795410	     -1.31267827	      9.24052442	    -36.70094538	    -78.83830474	    -76.57309237	      7.58374544	      5.55457842	    -18.72034696	      1.15456862	     67.55057854	    -99.74512777	    129.75105745	      6.28573926	     14.70808937	     -8.20473513	      7.14220673
      0.17241379	     -4.65825417	     -0.78291952	     83.50208544	      0.21729215	      0.90557938	      0.48923237	     -1.45190928	     -5.28310275	     -8.46616036	     10.59066896	      0.18484204	     40.58099477	     12.39500533	      0.00000000	     -0.69138470	      4.90523995	     15.41009750	      2.50104437	      0.04365146	     35.88207753	    -16.54849378	      0.00000000	     -0.24508797	     -0.44126450	      0.55997513	     -0.45515287	     -0.58688179	      0.59497358	     -0.40265503	     -1.07289052	      0.59497358	     -0.28011104	     -1.07289052	      0.48997824	     -0.22758869	     -0.89982658	      0.45497980	     -0.14004327	     -0.68351872	      0.41998135	     -1.75063888	     -4.99167233	      3.11441370	      0.00000000	      0.00000000	      7.68566677	     -0.87043455	      8.92101455	    -36.79690320	    -78.43702538	    -76.43974619	      7.61936643	      5.68005001	    -18.59832856	      1.21731993	     67.95496043	    -99.95842997	    129.79860269	      7.07386559	     14.60356258	     -7.97329865	      7.27932972
